<svg xmlns="http://www.w3.org/2000/svg" width="18" height="20" viewBox="0 0 18 20">
    <path fill="#333" fill-rule="evenodd" d="M16.384 4.241c.208.208.387.491.536.848.148.357.223.685.223.982V18.93c0 .297-.104.55-.313.759a1.033 1.033 0 0 1-.759.312h-15c-.297 0-.55-.104-.758-.313A1.033 1.033 0 0 1 0 18.93V1.07C0 .774.104.521.313.313.52.104.772 0 1.07 0h10c.298 0 .625.074.983.223.357.149.64.328.848.536l3.482 3.482zm-4.955-2.723v4.196h4.196c-.074-.215-.156-.368-.246-.457l-3.493-3.494c-.09-.089-.242-.17-.457-.245zm4.285 17.053V7.143h-4.643c-.297 0-.55-.104-.758-.313A1.033 1.033 0 0 1 10 6.071V1.43H1.429V18.57h14.285zm-5.736-6.618c.245.194.558.402.937.625.44-.052.874-.078 1.306-.078 1.094 0 1.752.182 1.975.547.12.164.127.357.023.58 0 .008-.004.015-.011.023l-.023.022v.011c-.044.283-.309.424-.792.424-.357 0-.785-.074-1.284-.223a8.137 8.137 0 0 1-1.45-.592c-1.645.179-3.103.488-4.376.927-1.138 1.95-2.038 2.924-2.7 2.924a.649.649 0 0 1-.313-.078l-.268-.134a1.194 1.194 0 0 0-.067-.056c-.074-.074-.096-.208-.067-.402.067-.297.276-.638.625-1.021.35-.383.841-.742 1.474-1.077.104-.067.19-.045.256.067.015.015.023.03.023.045.386-.633.785-1.366 1.194-2.2A17.032 17.032 0 0 0 7.6 9.365a9.022 9.022 0 0 1-.34-1.78c-.048-.577-.024-1.051.073-1.423.081-.298.238-.447.468-.447h.246c.171 0 .301.056.39.168.134.156.168.409.1.759a.242.242 0 0 1-.044.089.29.29 0 0 1 .011.09v.334c-.014.915-.066 1.63-.156 2.143.41 1.22.953 2.106 1.63 2.656zM3.549 16.54c.387-.178.897-.766 1.53-1.763-.38.297-.706.61-.977.937-.272.328-.456.603-.553.826zM7.991 6.272c-.112.313-.119.804-.022 1.474.007-.053.033-.216.078-.492 0-.022.026-.182.078-.48a.251.251 0 0 1 .045-.089c-.008-.007-.012-.015-.012-.022a.086.086 0 0 1-.01-.034.643.643 0 0 0-.146-.401c0 .007-.003.015-.01.022v.022zM6.607 13.65a16.37 16.37 0 0 1 3.17-.904 1.687 1.687 0 0 1-.145-.106 1.995 1.995 0 0 1-.179-.151c-.565-.499-1.038-1.153-1.417-1.964-.201.64-.51 1.372-.927 2.198-.223.417-.39.726-.502.927zm7.21-.179c-.179-.179-.7-.268-1.563-.268.566.208 1.027.313 1.384.313.105 0 .172-.004.201-.012 0-.007-.007-.018-.022-.033z"/>
</svg>
