<svg xmlns="http://www.w3.org/2000/svg" width="15" height="15" viewBox="0 0 15 15">
    <path fill="#333" fill-rule="evenodd" d="M12.014 12.007c.408 0 .756.15 1.044.45.287.301.431.656.431 1.065 0 .408-.144.757-.431 1.045a1.42 1.42 0 0 1-1.044.433 1.48 1.48 0 0 1-1.06-.433c-.3-.288-.45-.637-.45-1.045 0-.409.15-.764.45-1.064.299-.3.653-.45 1.06-.45zM0 0h2.464l.701 1.478h11.098c.203 0 .377.075.521.226.144.15.216.333.216.55a.556.556 0 0 1-.108.342L12.23 7.464a1.577 1.577 0 0 1-.548.559 1.429 1.429 0 0 1-.765.216H5.342l-.666 1.226-.036.108c0 .048.018.09.054.127a.172.172 0 0 0 .126.054h8.67v1.514H4.495c-.407 0-.755-.15-1.043-.45a1.487 1.487 0 0 1-.431-1.064c0-.229.06-.463.18-.704l1.007-1.875L1.51 1.478H0V0zm4.496 12.007c.408 0 .762.15 1.062.45.3.301.45.656.45 1.065 0 .408-.15.757-.45 1.045A1.48 1.48 0 0 1 4.496 15a1.42 1.42 0 0 1-1.043-.433 1.426 1.426 0 0 1-.431-1.045c0-.409.143-.764.431-1.064.288-.3.636-.45 1.043-.45z"/>
</svg>
