<svg xmlns="http://www.w3.org/2000/svg" width="23" height="23" viewBox="0 0 23 23">
    <g fill="#FFF" fill-rule="evenodd">
        <path fill-rule="nonzero" d="M22.514 20.221l-5.41-5.367c2.625-3.577 2.333-8.625-.938-11.852-3.628-3.577-9.524-3.577-13.153 0a9.089 9.089 0 0 0 0 12.97c3.272 3.227 8.39 3.514 12.019.926l5.442 5.367a1.46 1.46 0 0 0 2.073 0c.55-.575.55-1.469-.033-2.044zM4.471 14.535a7.084 7.084 0 0 1 0-10.095c2.818-2.78 7.417-2.78 10.237 0a7.084 7.084 0 0 1 0 10.095c-2.82 2.779-7.419 2.779-10.237 0z"/>
        <path d="M13.282 8.433H10.69V5.877c0-.575-.486-1.085-1.1-1.085-.584 0-1.102.479-1.102 1.085v2.556H5.897c-.584 0-1.101.479-1.101 1.085 0 .576.486 1.086 1.1 1.086h2.592v2.555c0 .576.486 1.086 1.101 1.086.584 0 1.101-.48 1.101-1.086v-2.555h2.592c.583 0 1.1-.48 1.1-1.086-.031-.606-.517-1.085-1.1-1.085z"/>
    </g>
</svg>
