<?xml version="1.0" encoding="UTF-8"?>
<svg width="43px" height="37px" viewBox="0 0 43 37" version="1.1" xmlns="http://www.w3.org/2000/svg" xmlns:xlink="http://www.w3.org/1999/xlink">
    <!-- Generator: Sketch 52.2 (67145) - http://www.bohemiancoding.com/sketch -->
    <title>np_basket_1267430_000000</title>
    <desc>Created with Sketch.</desc>
    <g id="Page-1" stroke="none" stroke-width="1" fill="none" fill-rule="evenodd">
        <g id="spendenshop-1440px-step4" transform="translate(-696.000000, -1264.000000)" fill="#333333">
            <g id="basket" transform="translate(696.000000, 1264.000000)">
                <g id="np_basket_1267430_000000">
                    <path d="M8.3495,17.8945 L8.3495,14.8144 C8.3495,8.7499 12.6288,3.8144 17.91,3.8144 L25.07,3.8144 C30.3495,3.8144 34.6305,8.7343 34.6305,14.8144 L34.6305,17.8945 L38.6305,17.8945 L38.6305,15.05465 C38.6305,6.79865 32.8065,0.10565 25.6305,0.10565 L17.3395,0.10565 C10.154,0.10565 4.3395,6.80115 4.3395,15.05465 L4.3395,17.8945 L8.3495,17.8945 Z" id="Path"></path>
                    <path d="M2,22.8945 L2,25.08395 C2.08594,31.61895 8.2655,36.89845 15.875,36.89845 L27.119,36.900403 C34.7285,36.900403 40.908,31.624903 40.994,25.089903 L40.994,22.8945 L2,22.8945 Z" id="Path"></path>
                    <path d="M2.01,16.8945 L40.9905,16.8945 C41.96315,16.8945 42.75025,17.86715 42.75025,18.65425 L42.75025,20.1347 C42.75025,21.10735 41.96315,21.89445 40.9905,21.89445 L2.01,21.89445 C1.03735,21.89445 0.25025,20.9218 0.25025,20.1347 L0.25025,18.65425 C0.25025,17.6816 1.03735,16.8945 2.01,16.8945 Z" id="Path"></path>
                </g>
            </g>
        </g>
    </g>
</svg>